HIERARCHY
ROOT Hips
{
	OFFSET 0.000000 0.000000 0.000000
	CHANNELS 6 Xposition Yposition Zposition Zrotation Yrotation Xrotation 
	JOINT LeftUpLeg_virtual
	{
		OFFSET 0.000000 0.000000 0.000000
		CHANNELS 3 Zrotation Yrotation Xrotation
		JOINT LeftUpLeg
		{
			OFFSET 10.205400 -3.823500 0.155100
			CHANNELS 3 Zrotation Yrotation Xrotation
			JOINT LeftLeg
			{
				OFFSET 0.708757 -12.982077 0.567790
				CHANNELS 3 Zrotation Yrotation Xrotation
				JOINT LeftFoot
				{
					OFFSET -0.708756 -10.717838 -2.184338
					CHANNELS 3 Zrotation Yrotation Xrotation
					JOINT LeftToeBase
					{
						OFFSET 0.108149 -7.191104 7.560241
						CHANNELS 3 Zrotation Yrotation Xrotation
						End Site
						{
							OFFSET 0.000000 0.000000 0.000000
						}
					}
				}
			}
		}
	}
	JOINT RightUpLeg_virtual
	{
		OFFSET 0.000000 0.000000 0.000000
		CHANNELS 3 Zrotation Yrotation Xrotation
		JOINT RightUpLeg
		{
			OFFSET -10.205400 -3.823500 0.005500
			CHANNELS 3 Zrotation Yrotation Xrotation
			JOINT RightLeg
			{
				OFFSET -0.708756 -12.982134 0.610632
				CHANNELS 3 Zrotation Yrotation Xrotation
				JOINT RightFoot
				{
					OFFSET 0.708754 -10.717769 -1.945823
					CHANNELS 3 Zrotation Yrotation Xrotation
					JOINT RightToeBase
					{
						OFFSET -0.108140 -7.191069 7.372968
						CHANNELS 3 Zrotation Yrotation Xrotation
						End Site
						{
							OFFSET 0.000000 0.000000 0.000000
						}
					}
				}
			}
		}
	}
	JOINT Spine_virtual
	{
		OFFSET 0.000000 0.000000 0.000000
		CHANNELS 3 Zrotation Yrotation Xrotation
		JOINT Spine
		{
			OFFSET 0.000000 6.876099 0.125700
			CHANNELS 3 Zrotation Yrotation Xrotation
			JOINT Spine1
			{
				OFFSET 0.000000 8.022060 0.146608
				CHANNELS 3 Zrotation Yrotation Xrotation
				JOINT Spine2
				{
					OFFSET 0.000000 9.168068 0.167552
					CHANNELS 3 Zrotation Yrotation Xrotation
					JOINT Neck_virtual
					{
						OFFSET 0.000000 0.000000 0.000000
						CHANNELS 3 Zrotation Yrotation Xrotation
						JOINT Neck
						{
							OFFSET 0.000000 10.314075 0.188496
							CHANNELS 3 Zrotation Yrotation Xrotation
							JOINT Head
							{
								OFFSET 0.000000 7.643700 -2.377400
								CHANNELS 3 Zrotation Yrotation Xrotation
								End Site
								{
									OFFSET 0.000000 0.000000 0.000000
								}
							}
						}
					}
					JOINT LeftShoulder_virtual
					{
						OFFSET 0.000000 0.000000 0.000000
						CHANNELS 3 Zrotation Yrotation Xrotation
						JOINT LeftShoulder
						{
							OFFSET 4.392200 8.824978 0.174984
							CHANNELS 3 Zrotation Yrotation Xrotation
							JOINT LeftArm
							{
								OFFSET 8.771219 -2.981674 -0.026999
								CHANNELS 3 Zrotation Yrotation Xrotation
								JOINT LeftForeArm
								{
									OFFSET 8.512804 0.000000 -0.000000
									CHANNELS 3 Zrotation Yrotation Xrotation
									JOINT LeftHand
									{
										OFFSET 18.484802 0.000000 -0.000000
										CHANNELS 3 Zrotation Yrotation Xrotation
										End Site
										{
											OFFSET 0.000000 0.000000 0.000000
										}
									}
								}
							}
						}
					}
					JOINT RightShoulder_virtual
					{
						OFFSET 0.000000 0.000000 0.000000
						CHANNELS 3 Zrotation Yrotation Xrotation
						JOINT RightShoulder
						{
							OFFSET -4.392200 8.824993 0.141379
							CHANNELS 3 Zrotation Yrotation Xrotation
							JOINT RightArm
							{
								OFFSET -8.771282 -2.981682 -0.094208
								CHANNELS 3 Zrotation Yrotation Xrotation
								JOINT RightForeArm
								{
									OFFSET -8.494598 0.000000 0.000000
									CHANNELS 3 Zrotation Yrotation Xrotation
									JOINT RightHand
									{
										OFFSET -18.483803 0.000000 0.000001
										CHANNELS 3 Zrotation Yrotation Xrotation
										End Site
										{
											OFFSET 0.000000 0.000000 0.000000
										}
									}
								}
							}
						}
					}
				}
			}
		}
	}
}
MOTION
Frames: 4
Frame Time: 0.033333
-17.107462 23.873484 9.080856 -179.950363 8.295015 -179.908467 5.342031 -7.548248 -6.511376 -28.554157 -6.911301 -68.772758 29.542607 -10.493551 79.192471 -11.864386 -6.361042 11.794178 0.000000 0.000000 0.000000 5.068124 -0.533394 -6.577205 6.795060 3.519539 -67.884868 -11.213787 -8.172925 69.624141 -10.601709 13.343813 25.202899 0.000000 0.000000 0.000000 4.294624 -0.165049 -8.643346 0.618944 -1.987233 -0.714659 -0.795857 -0.768884 12.509336 -0.006994 -0.023769 0.057423 -0.815140 -0.110812 13.839759 5.197428 -5.849084 10.916171 0.000000 0.000000 0.000000 1.359734 0.410403 10.581682 -19.822119 -12.319260 5.107521 -38.837770 -19.337751 27.495806 -1.548002 -58.803216 5.723698 0.000000 0.000000 0.000000 -3.011792 1.671372 9.393504 18.054642 19.581085 3.729428 65.835012 13.053872 13.519256 -165.464556 66.160989 -164.162996 0.000000 0.000000 0.000000 
-17.198490 23.898573 9.122993 179.952549 8.335683 -179.941211 5.237869 -8.119830 -6.246643 -30.293668 -7.218316 -67.602111 31.977528 -8.867325 78.834569 -7.905516 -3.900201 7.326892 0.000000 0.000000 0.000000 5.059857 -1.024376 -6.732033 7.150042 2.764766 -67.664635 -11.362038 -8.400363 69.224753 -10.505895 13.276739 25.551092 0.000000 0.000000 0.000000 4.212698 -0.378910 -8.672715 0.636170 -1.974210 -0.937599 -0.743217 -0.674357 12.726104 -0.051044 -0.019091 0.020047 -0.817287 0.050539 14.020258 5.444087 -6.058809 11.139415 0.000000 0.000000 0.000000 1.358345 0.530748 10.820636 -20.022809 -12.696832 5.237105 -38.591037 -19.508977 26.886241 -1.508450 -58.421210 5.814382 0.000000 0.000000 0.000000 -3.055787 1.796782 9.512024 17.977466 19.705253 3.581807 66.030389 13.345511 13.488487 -164.761416 65.965380 -163.487121 0.000000 0.000000 0.000000 
-17.276575 23.915806 9.171542 179.927810 8.361373 -179.857145 5.096355 -8.161583 -6.141096 -31.084365 -8.069625 -66.839617 33.778687 -8.107881 78.056338 -6.138819 -2.986028 5.849597 0.000000 0.000000 0.000000 5.044176 -1.173945 -6.787221 7.074157 2.300162 -67.702802 -11.609311 -8.903094 68.962999 -10.342195 13.287512 25.866825 0.000000 0.000000 0.000000 4.186927 -0.415487 -8.647234 0.726735 -1.972789 -1.274191 -0.893866 -0.576516 12.891596 0.011471 0.001303 0.029107 -0.904104 0.035428 14.146579 5.611208 -5.990034 11.321782 0.000000 0.000000 0.000000 1.265987 0.526553 10.971188 -20.158733 -12.921863 5.398085 -38.321616 -19.677661 26.250794 -1.541578 -58.064128 5.961197 0.000000 0.000000 0.000000 -3.122558 1.849046 9.662425 17.996375 19.836719 3.571728 66.328356 13.648290 13.411048 -164.337466 65.840647 -162.989897 0.000000 0.000000 0.000000 
-17.317062 23.922680 9.206916 179.970608 8.233419 -179.941689 4.985294 -8.004889 -6.217163 -31.082760 -8.746990 -66.369952 33.841169 -8.202638 77.587083 -5.806190 -3.203464 5.761059 0.000000 0.000000 0.000000 5.054197 -1.105622 -6.747465 7.010992 2.086447 -67.652525 -11.702834 -8.891099 68.929777 -10.195866 13.424919 25.880958 0.000000 0.000000 0.000000 4.138206 -0.255987 -8.502971 0.789061 -2.070072 -1.531153 -0.975946 -0.538496 13.035083 0.006585 -0.002052 -0.000967 -0.988218 0.103381 14.296553 5.750662 -6.035153 11.545823 0.000000 0.000000 0.000000 1.200071 0.634195 11.158553 -20.111072 -13.139035 5.413231 -38.052729 -19.676510 25.596504 -1.781671 -57.769289 6.291110 0.000000 0.000000 0.000000 -3.227856 1.915757 9.795476 18.074352 19.983329 3.494935 66.593320 13.863888 13.503261 -164.038632 65.601276 -162.687688 0.000000 0.000000 0.000000 
